<svg xmlns="http://www.w3.org/2000/svg" style="display: none;"><symbol id="icon-preferences" viewBox="0 0 48 48"><title>preferences</title><g class="nc-icon-wrapper"><path fill="currentColor" d="M46,7H21c-0.552,0-1,0.448-1,1s0.448,1,1,1h25c0.552,0,1-0.448,1-1S46.552,7,46,7z"/> <path fill="currentColor" d="M16,1H8C7.448,1,7,1.448,7,2v5H2C1.448,7,1,7.448,1,8s0.448,1,1,1h5v5c0,0.552,0.448,1,1,1h8 c0.552,0,1-0.448,1-1V2C17,1.448,16.552,1,16,1z"/> <path data-color="color-2" d="M2,23h25c0.552,0,1,0.448,1,1s-0.448,1-1,1H2c-0.552,0-1-0.448-1-1S1.448,23,2,23z"/> <path data-color="color-2" d="M32,17h8c0.552,0,1,0.448,1,1v5h5c0.552,0,1,0.448,1,1s-0.448,1-1,1h-5v5 c0,0.552-0.448,1-1,1h-8c-0.552,0-1-0.448-1-1V18C31,17.448,31.448,17,32,17z"/> <path fill="currentColor" d="M46,39H21c-0.552,0-1,0.448-1,1s0.448,1,1,1h25c0.552,0,1-0.448,1-1S46.552,39,46,39z"/> <path fill="currentColor" d="M16,33H8c-0.552,0-1,0.448-1,1v5H2c-0.552,0-1,0.448-1,1s0.448,1,1,1h5v5c0,0.552,0.448,1,1,1h8 c0.552,0,1-0.448,1-1V34C17,33.448,16.552,33,16,33z"/></g></symbol><symbol id="icon-ic_timeline_48px" viewBox="0 0 48 48"><title>ic timeline 48px</title><g class="nc-icon-wrapper" stroke="none" fill="currentColor">
        <path d="M46 16c0 2.2-1.8 4-4 4-.36 0-.7-.04-1.02-.14l-7.12 7.1c.1.32.14.68.14 1.04 0 2.2-1.8 4-4 4s-4-1.8-4-4c0-.36.04-.72.14-1.04l-5.1-5.1c-.32.1-.68.14-1.04.14s-.72-.04-1.04-.14l-9.1 9.12c.1.32.14.66.14 1.02 0 2.2-1.8 4-4 4s-4-1.8-4-4 1.8-4 4-4c.36 0 .7.04 1.02.14l9.12-9.1c-.1-.32-.14-.68-.14-1.04 0-2.2 1.8-4 4-4s4 1.8 4 4c0 .36-.04.72-.14 1.04l5.1 5.1c.32-.1.68-.14 1.04-.14s.72.04 1.04.14l7.1-7.12c-.1-.32-.14-.66-.14-1.02 0-2.2 1.8-4 4-4s4 1.8 4 4z"/>
    </g></symbol></svg>